<svg width="237" height="237" viewBox="0 0 237 237" fill="none" xmlns="http://www.w3.org/2000/svg">
<path d="M44.4375 155.531V148.125H29.625V155.531C29.625 169.281 35.0871 182.468 44.8097 192.19C54.5323 201.913 67.7189 207.375 81.4688 207.375H103.688V192.562H81.4688C71.6475 192.562 62.2284 188.661 55.2837 181.716C48.339 174.772 44.4375 165.353 44.4375 155.531Z" fill="#F3C54E" fill-opacity="0.94"/>
<path d="M177.75 81.4688V88.875H192.562V81.4688C192.562 67.7189 187.1 54.5323 177.378 44.8097C167.655 35.0871 154.469 29.625 140.719 29.625H118.5V44.4375H140.719C145.582 44.4375 150.397 45.3953 154.89 47.2563C159.383 49.1173 163.465 51.845 166.904 55.2837C170.342 58.7224 173.07 62.8047 174.931 67.2975C176.792 71.7903 177.75 76.6057 177.75 81.4688V81.4688Z" fill="#F3C54E" fill-opacity="0.94"/>
<path d="M81.4688 81.4688H37.0312C31.1385 81.4688 25.487 83.8096 21.3202 87.9765C17.1534 92.1433 14.8125 97.7947 14.8125 103.688V118.5H29.625V103.688C29.625 101.723 30.4053 99.8394 31.7942 98.4505C33.1832 97.0616 35.067 96.2812 37.0312 96.2812H81.4688C83.433 96.2812 85.3168 97.0616 86.7058 98.4505C88.0947 99.8394 88.875 101.723 88.875 103.688V118.5H103.688V103.688C103.687 97.7947 101.347 92.1433 97.1798 87.9765C93.013 83.8096 87.3615 81.4688 81.4688 81.4688V81.4688Z" fill="#F3C54E" fill-opacity="0.94"/>
<path d="M59.25 74.0625C65.1093 74.0625 70.837 72.325 75.7088 69.0698C80.5806 65.8146 84.3777 61.1878 86.6199 55.7745C88.8622 50.3612 89.4488 44.4046 88.3058 38.658C87.1627 32.9113 84.3412 27.6326 80.198 23.4895C76.0549 19.3463 70.7762 16.5248 65.0295 15.3817C59.2829 14.2387 53.3263 14.8253 47.913 17.0676C42.4997 19.3098 37.8729 23.1069 34.6177 27.9787C31.3625 32.8505 29.625 38.5782 29.625 44.4375C29.625 52.2946 32.7462 59.8298 38.302 65.3856C43.8577 70.9413 51.393 74.0625 59.25 74.0625ZM59.25 29.625C62.1796 29.625 65.0435 30.4938 67.4794 32.1214C69.9153 33.749 71.8138 36.0624 72.935 38.769C74.0561 41.4756 74.3494 44.4539 73.7779 47.3273C73.2063 50.2006 71.7956 52.84 69.724 54.9115C67.6524 56.9831 65.0131 58.3939 62.1398 58.9654C59.2664 59.5369 56.2881 59.2436 53.5815 58.1225C50.8749 57.0014 48.5615 55.1028 46.9339 52.6669C45.3062 50.231 44.4375 47.3671 44.4375 44.4375C44.4375 40.509 45.9981 36.7414 48.776 33.9635C51.5539 31.1856 55.3215 29.625 59.25 29.625V29.625Z" fill="#F3C54E" fill-opacity="0.94"/>
<path d="M199.969 185.156H155.531C149.638 185.156 143.987 187.497 139.82 191.664C135.653 195.831 133.313 201.482 133.312 207.375V222.188H148.125V207.375C148.125 205.411 148.905 203.527 150.294 202.138C151.683 200.749 153.567 199.969 155.531 199.969H199.969C201.933 199.969 203.817 200.749 205.206 202.138C206.595 203.527 207.375 205.411 207.375 207.375V222.188H222.188V207.375C222.187 201.482 219.847 195.831 215.68 191.664C211.513 187.497 205.862 185.156 199.969 185.156Z" fill="#F3C54E" fill-opacity="0.94"/>
<path d="M148.125 148.125C148.125 153.984 149.862 159.712 153.118 164.584C156.373 169.456 161 173.253 166.413 175.495C171.826 177.737 177.783 178.324 183.53 177.181C189.276 176.038 194.555 173.216 198.698 169.073C202.841 164.93 205.663 159.651 206.806 153.905C207.949 148.158 207.362 142.201 205.12 136.788C202.878 131.375 199.081 126.748 194.209 123.493C189.337 120.237 183.609 118.5 177.75 118.5C169.893 118.5 162.358 121.621 156.802 127.177C151.246 132.733 148.125 140.268 148.125 148.125ZM192.562 148.125C192.562 151.055 191.694 153.918 190.066 156.354C188.439 158.79 186.125 160.689 183.419 161.81C180.712 162.931 177.734 163.224 174.86 162.653C171.987 162.081 169.348 160.671 167.276 158.599C165.204 156.527 163.794 153.888 163.222 151.015C162.651 148.141 162.944 145.163 164.065 142.456C165.186 139.75 167.085 137.436 169.521 135.809C171.957 134.181 174.82 133.312 177.75 133.312C181.679 133.312 185.446 134.873 188.224 137.651C191.002 140.429 192.562 144.196 192.562 148.125Z" fill="#F3C54E" fill-opacity="0.94"/>
</svg>
