<svg width="633" height="624" viewBox="0 0 633 624" fill="none" xmlns="http://www.w3.org/2000/svg">
<g clip-path="url(#clip0)">
<rect width="633" height="624" fill="white"/>
<path d="M106.155 397.448H90.371V668.887H106.155V397.448Z" fill="#FFBE21"/>
<path d="M106.161 401.18H90.371" stroke="#A15842" stroke-width="2.67791" stroke-miterlimit="10"/>
<path d="M18.7449 614.421C20.3438 609.781 23.3297 605.76 27.2888 602.914C31.2478 600.069 35.9838 598.54 40.8401 598.54C45.6963 598.54 50.4323 600.069 54.3914 602.914C58.3504 605.76 61.3364 609.781 62.9353 614.421C64.4613 609.991 67.2533 606.12 70.9571 603.299C74.6609 600.478 79.1096 598.833 83.7387 598.574C81.672 594.847 79.2111 591.358 76.3993 588.17L67.9031 578.5C65.2618 575.496 63.5982 571.742 63.1383 567.749C62.6784 563.755 63.4445 559.715 65.3324 556.177L72.5432 542.619C70.5188 544.68 58.8157 555.767 41.0521 555.767C23.2886 555.767 11.5855 544.68 9.56103 542.619H9.52891L16.7461 556.177C18.6258 559.722 19.38 563.767 18.9062 567.762C18.4325 571.756 16.7536 575.506 14.0983 578.5L5.60858 588.131C2.79164 591.32 0.324366 594.808 -1.75006 598.535C2.82931 598.858 7.21383 600.536 10.8579 603.36C14.502 606.185 17.2447 610.031 18.7449 614.421Z" fill="#4756DF"/>
<path d="M41.0007 555.793C58.7642 555.793 70.4674 544.706 72.4918 542.645H9.50958C11.534 544.687 23.2371 555.793 41.0007 555.793Z" fill="#30242A"/>
<path d="M18.7449 644.014C20.3408 639.372 23.3256 635.347 27.285 632.499C31.2444 629.65 35.982 628.12 40.8401 628.12C45.6981 628.12 50.4357 629.65 54.3951 632.499C58.3545 635.347 61.3394 639.372 62.9352 644.014C64.8837 638.345 68.8882 633.636 74.1382 630.842C79.3882 628.047 85.4915 627.374 91.2129 628.961C91.4769 618.337 88.8989 607.838 83.7514 598.574C79.1224 598.833 74.6737 600.478 70.9699 603.299C67.2661 606.12 64.4741 609.991 62.9481 614.421C61.3492 609.781 58.3632 605.76 54.4042 602.914C50.4451 600.069 45.7092 598.54 40.8529 598.54C35.9966 598.54 31.2607 600.069 27.3016 602.914C23.3426 605.76 20.3566 609.781 18.7578 614.421C17.2483 610.042 14.5016 606.208 10.8583 603.394C7.21492 600.581 2.83536 598.911 -1.73713 598.593C-6.86164 607.826 -9.43458 618.284 -9.18573 628.87C-3.4996 627.389 2.5288 628.124 7.70449 630.929C12.8802 633.734 16.8253 638.404 18.7578 644.014H18.7449Z" fill="#3EC1F3"/>
<path d="M45.6665 553.933C46.9519 545.974 52.7938 514.423 67.4853 497.276" stroke="#30242A" stroke-width="2.67791" stroke-miterlimit="10" stroke-linecap="round"/>
<path d="M38.8863 554.161C38.7899 545.122 37.8709 500.742 29.1498 474.263" stroke="#30242A" stroke-width="2.67791" stroke-miterlimit="10" stroke-linecap="round"/>
<path d="M77.5404 523.107C90.4219 517.372 99.8307 510.346 98.5556 507.414C97.2805 504.482 85.8043 506.754 72.9228 512.489C60.0413 518.224 50.6325 525.25 51.9076 528.182C53.1827 531.114 64.6589 528.842 77.5404 523.107Z" fill="#30242A"/>
<path d="M77.5329 442.432C82.1639 436.097 84.1484 429.637 81.9654 428.004C79.7825 426.37 74.2586 430.181 69.6276 436.515C64.9966 442.85 63.0121 449.31 65.1951 450.943C67.378 452.577 72.9019 448.766 77.5329 442.432Z" fill="#30242A"/>
<path d="M7.75476 527.545C24.5412 524.937 37.7911 520.39 37.3492 517.388C36.9073 514.387 22.941 514.068 6.1545 516.676C-10.632 519.284 -23.8819 523.831 -23.44 526.832C-22.9981 529.834 -9.03172 530.153 7.75476 527.545Z" fill="#30242A"/>
<path d="M-3.94166 483.289V483.334C-1.46044 484.738 0.41096 487.032 1.30357 489.763C2.19618 492.493 2.04524 495.464 0.880502 498.087C-0.284236 500.711 -2.37825 502.798 -4.98869 503.937C-7.59913 505.076 -10.5366 505.184 -13.2219 504.24V504.279C0.852714 510.678 14.3553 511.166 16.926 505.372C19.4967 499.578 10.1393 489.687 -3.94166 483.289Z" fill="#FF7235"/>
<path d="M37.6716 436.912C34.6768 436.125 30.7822 440.71 27.9351 447.804C24.5096 439.188 19.5418 433.42 16.1934 434.539C12.8451 435.657 12.2474 443.278 14.5675 452.265C8.10216 448.285 2.27952 446.946 0.332217 449.384C-2.14851 452.492 2.63299 460.556 11.0135 467.403C13.3977 469.368 15.9631 471.097 18.6742 472.566C19.1363 470.709 20.0497 468.998 21.3314 467.588C22.6132 466.179 24.2226 465.116 26.0136 464.495C27.8045 463.875 29.7203 463.718 31.5867 464.037C33.4532 464.356 35.2112 465.142 36.7012 466.323C37.9573 463.588 38.9599 460.741 39.6961 457.818C42.4017 447.277 41.4955 437.913 37.6716 436.912Z" fill="#FF7235"/>
<path d="M103.006 484.778C102.08 481.787 96.1742 480.876 88.7192 482.177C94.1305 474.679 96.3413 467.364 93.6357 465.081C90.93 462.799 84.214 466.317 77.903 473.06C77.8258 465.4 75.8657 459.691 72.7937 459.307C68.8798 458.819 64.6382 467.195 63.3271 478.002C62.9386 481.092 62.8439 484.212 63.0443 487.32C64.8474 486.733 66.7671 486.61 68.6289 486.964C70.4906 487.318 72.2353 488.138 73.7042 489.348C75.1731 490.559 76.3197 492.121 77.0395 493.894C77.7594 495.667 78.0297 497.594 77.8259 499.5C80.7857 499.121 83.705 498.468 86.547 497.549C96.8105 494.317 104.182 488.588 103.006 484.778Z" fill="#FF7235"/>
<path d="M73.79 489.414C72.3203 488.174 70.5644 487.33 68.6857 486.96C66.8069 486.591 64.8664 486.708 63.0444 487.301C63.4108 492.444 64.6961 496.405 66.6306 497.842C68.4365 499.532 72.6139 500.098 77.8132 499.48C78.0158 497.597 77.7545 495.692 77.0525 493.935C76.3505 492.179 75.2296 490.626 73.79 489.414V489.414Z" fill="#30242A"/>
<path d="M26.1292 464.457C24.312 465.064 22.6757 466.125 21.3724 467.543C20.0691 468.96 19.1409 470.688 18.6741 472.566C23.1729 474.972 27.1703 475.947 29.4197 475.063C31.7912 474.413 34.4712 471.116 36.7013 466.323C35.2282 465.154 33.4919 464.371 31.6471 464.045C29.8024 463.72 27.9067 463.861 26.1292 464.457V464.457Z" fill="#30242A"/>
<path d="M-2.68837 502.595C-3.89689 501.913 -4.80826 500.797 -5.24199 499.467C-5.67572 498.138 -5.60018 496.692 -5.03032 495.416C-4.46047 494.14 -3.43788 493.128 -2.16504 492.578C-0.892195 492.029 0.538061 491.984 1.84249 492.451C1.69159 490.57 1.08493 488.755 0.0761097 487.167C-0.932709 485.579 -2.31261 484.267 -3.94159 483.347L-13.2411 504.24C-11.4834 504.861 -9.60197 505.036 -7.76197 504.749C-5.92197 504.462 -4.17976 503.723 -2.68837 502.595Z" fill="#F5EBDD"/>
<path d="M-5.05335 495.423C-5.61386 496.698 -5.68196 498.14 -5.24422 499.464C-4.80648 500.788 -3.89464 501.898 -2.68832 502.576C-1.14364 501.413 0.0829312 499.872 0.875661 498.097C1.66839 496.322 2.00113 494.372 1.84251 492.431C0.53206 491.959 -0.906259 492.005 -2.1848 492.56C-3.46334 493.114 -4.48782 494.137 -5.05335 495.423V495.423Z" fill="#4856DF"/>
<path d="M419.665 505.918H256.213L258.977 494.824H330.725L358.09 386.543C361.818 371.793 370.293 358.719 382.177 349.382C394.062 340.046 408.68 334.977 423.727 334.977C460.545 334.977 487.486 370.091 478.354 406.181L461.445 473.086C459.072 482.475 453.678 490.798 446.113 496.743C438.548 502.687 429.243 505.915 419.665 505.918Z" fill="#FFB7D5"/>
<path d="M257.479 608.393V620.137H361.65V608.393H257.479Z" fill="#A15842"/>
<path d="M378.81 662.579L351.715 499.396H267.409L240.313 662.579C240.186 663.355 240.226 664.15 240.433 664.909C240.64 665.668 241.007 666.372 241.51 666.972C242.013 667.572 242.639 668.055 243.344 668.385C244.05 668.716 244.819 668.887 245.596 668.887V668.887C246.818 668.886 248.003 668.462 248.955 667.686C249.906 666.91 250.567 665.829 250.828 664.621L286.316 499.396H332.833L368.309 664.621C368.568 665.829 369.229 666.912 370.181 667.688C371.132 668.464 372.318 668.887 373.54 668.887V668.887C374.317 668.885 375.084 668.713 375.788 668.381C376.492 668.05 377.116 667.567 377.618 666.967C378.119 666.367 378.485 665.664 378.691 664.906C378.897 664.148 378.938 663.354 378.81 662.579V662.579Z" fill="#A15842"/>
<path d="M343.778 608.393V620.137H447.949V608.393H343.778Z" fill="#FFBE21"/>
<path d="M465.108 662.579L437.988 499.396H353.713L326.618 662.579C326.49 663.355 326.531 664.15 326.738 664.909C326.944 665.668 327.312 666.372 327.815 666.972C328.317 667.572 328.944 668.055 329.649 668.385C330.355 668.716 331.123 668.887 331.901 668.887V668.887C333.123 668.887 334.307 668.463 335.258 667.687C336.208 666.911 336.868 665.829 337.126 664.621L372.602 499.396H419.125L454.601 664.621C454.861 665.831 455.522 666.914 456.475 667.69C457.428 668.466 458.615 668.888 459.838 668.887V668.887C460.615 668.885 461.382 668.713 462.086 668.381C462.79 668.05 463.415 667.567 463.916 666.967C464.418 666.367 464.784 665.664 464.99 664.906C465.196 664.148 465.236 663.354 465.108 662.579V662.579Z" fill="#FFBE21"/>
<path d="M379.96 473.086L390.295 432.191H321.805C308.374 432.191 295.325 436.715 284.716 445.049C274.107 453.382 266.542 465.052 263.212 478.217L256.213 505.918H338.174C347.753 505.917 357.06 502.69 364.626 496.745C372.192 490.8 377.587 482.476 379.96 473.086V473.086Z" fill="#FFB7D5"/>
<path d="M260.667 493.739H347.621" stroke="#A15842" stroke-width="2.67791" stroke-linecap="round" stroke-linejoin="round"/>
<path d="M331.034 493.329L346.271 433.049" stroke="#A15842" stroke-width="2.67791" stroke-linecap="round" stroke-linejoin="round"/>
<path d="M470.764 430.793H429.633" stroke="#A15842" stroke-width="2.67791" stroke-linecap="round" stroke-linejoin="round"/>
<path d="M478.476 401.531H425.777" stroke="#A15842" stroke-width="2.67791" stroke-linecap="round" stroke-linejoin="round"/>
<path d="M286.515 388.318C286.515 388.318 234.954 402.526 213.051 413.613C176.939 431.879 177.061 443.935 155.043 511.426C134.716 573.799 132.479 604.03 104.439 605.226C83.0317 606.136 76.0137 613.224 72.5432 622.939L157.254 663.607C158.225 664.072 159.335 664.143 160.357 663.807C161.378 663.471 162.234 662.753 162.749 661.799V661.799C163.274 660.824 163.401 659.68 163.105 658.611C162.808 657.542 162.111 656.633 161.162 656.077L159.381 655.036C167.254 645.386 182.441 624.825 197.582 593.593L207.222 598.145C207.222 598.145 222.794 577.668 225.262 554.441C228.475 524.444 226.547 504.227 240.089 492.49L397.994 388.292L286.515 388.318Z" fill="#FF7235"/>
<path d="M96.1166 610.044C97.794 606.514 107.113 585.003 112.473 587.604C119.446 590.985 101.348 612.58 101.348 612.58L96.1166 610.044Z" fill="#30242A"/>
<path d="M72.5367 623.245L157.248 663.906C158.228 664.379 159.352 664.45 160.383 664.103C161.415 663.757 162.273 663.019 162.778 662.046C163.284 661.073 163.397 659.939 163.095 658.883C162.792 657.827 162.097 656.931 161.155 656.382L159.375 655.342L159.555 655.121L101.329 627.309C102.201 624.863 102.813 622.33 103.154 619.753C111.868 621.281 129.503 622.926 129.593 615.572C129.69 608.718 110.429 611.469 103.392 613.406C103.24 610.772 102.734 608.171 101.888 605.675C82.4725 607.027 75.8658 613.92 72.5367 623.245Z" fill="#30242A"/>
<path d="M213.051 413.613C208.996 415.661 205.403 417.632 202.184 419.609L197.241 435.625L216.265 422.067L233.803 436.216L227.338 416.819L247.203 407.611L231.85 405.66C225.448 407.971 219.173 410.626 213.051 413.613V413.613Z" fill="#FFB7D5"/>
<path d="M269.099 405.277L267.814 413.75L276.194 410.492L269.099 405.277Z" fill="#FFB7D5"/>
<path d="M220.763 447.661L208.52 463.963L191.117 455.49L201.425 473.093L185.313 486.787L205.937 484.18L213.032 508.311L220.121 484.18L242.679 477.658L220.763 468.528V447.661Z" fill="#FFB7D5"/>
<path d="M151.933 572.134L153.437 567.79L174.002 566.685L157.293 555.175L164.735 537.144L147.903 548.497L144.69 544.986C142.119 553.55 139.844 561.177 137.62 567.881H137.723C137.968 567.147 138.212 566.405 138.456 565.651L151.933 572.134Z" fill="#FFB7D5"/>
<path d="M151.933 572.134L138.437 565.677C138.192 566.431 137.948 567.173 137.704 567.907C129.548 592.487 122.119 604.777 104.452 605.532C103.584 605.532 102.749 605.616 101.926 605.675C102.773 608.171 103.278 610.772 103.43 613.406C110.5 611.456 129.728 608.718 129.632 615.572C129.529 622.926 111.907 621.281 103.192 619.753C102.845 622.331 102.227 624.864 101.348 627.309L159.574 655.121C167.492 645.367 182.55 624.91 197.576 593.938L151.933 572.134Z" fill="#EAA58B"/>
<path d="M203.36 522.656L201.432 540.265L183.385 539.615L198.854 551.358L193.07 572.225L208.552 558.524L222.466 567.914C222.852 566.67 223.205 565.41 223.527 564.136L218.193 550.695L226.457 541.533C226.592 539.829 226.721 538.151 226.843 536.519L212.408 538.958L203.36 522.656Z" fill="#FFB7D5"/>
<path d="M163.16 486.052C161.534 491.138 159.786 496.658 157.858 502.66L175.005 503.72L163.16 486.052Z" fill="#FFB7D5"/>
<path d="M223.707 644.912C223.977 641.01 224.819 617.536 230.744 617.958C238.456 618.504 229.491 645.321 229.491 645.321L223.707 644.912Z" fill="#30242A"/>
<path d="M366.439 389.274C366.439 389.274 301.985 401.369 266.535 416.364C230.744 431.508 231.091 458.403 237.531 531.46C243.315 596.864 253.649 628.622 232.389 638.402C212.891 647.376 206.117 658.626 207.042 668.913H303.026C303.567 668.913 304.102 668.805 304.602 668.596C305.102 668.386 305.556 668.079 305.939 667.692C306.321 667.305 306.625 666.845 306.832 666.34C307.039 665.834 307.145 665.292 307.145 664.745V664.745C307.145 663.639 306.711 662.579 305.939 661.797C305.166 661.016 304.118 660.576 303.026 660.576H301.406C304.433 650.556 308.823 630.996 309.427 598.626H321.329C321.329 598.626 327.447 570.014 320.687 544.498C313.617 517.766 307.152 513.201 303.289 494.941H361.047C405.153 494.941 438.167 453.663 428.572 410.108C425.577 396.498 421.233 389.3 421.233 389.3L366.439 389.274Z" fill="#FF7235"/>
<path d="M326.477 427.444L314.645 442.504L296.22 436.099L307.139 454.183L292.962 473.749L311.651 465.92L322.068 485.35L323.251 463.963L341.297 460.055L325.834 450.268L326.477 427.444Z" fill="#FFB7D5"/>
<path d="M300.731 543.698L311.657 561.782L297.479 581.348L316.168 573.545L323.096 586.466C324.112 576.426 324.613 561.574 321.374 547.314L319.163 550.129L300.731 543.698Z" fill="#FFB7D5"/>
<path d="M252.544 598.6L251.715 588.521L272.64 580.354L252.833 576.198L255.018 554.2L242.164 571.217L241.779 571.055C243.013 581.556 244.092 590.732 244.697 598.671V598.6H252.544Z" fill="#FFB7D5"/>
<path d="M303.026 660.55H301.406C304.433 650.53 308.823 630.97 309.427 598.6H244.677V598.658C244.729 599.309 244.774 599.959 244.819 600.609C244.819 600.668 244.819 600.733 244.819 600.791C246.162 621.112 243.97 632.999 232.364 638.337C212.865 647.311 206.091 658.561 207.017 668.848H303.026C304.118 668.848 305.166 668.409 305.939 667.627C306.711 666.845 307.145 665.785 307.145 664.68C307.145 663.574 306.711 662.514 305.939 661.732C305.166 660.951 304.118 660.511 303.026 660.511V660.55Z" fill="#EAA58B"/>
<path d="M388.964 390.958L359.356 393.611L362.441 405.654L343.501 415.876L367.094 419.069L375.076 436.958L383.283 418.432L407.281 414.595L386.439 403.736L388.964 390.958Z" fill="#FFB7D5"/>
<path d="M247.846 475.7L254.915 452.876L275.538 456.127L259.427 441.783L270.995 428.088L249.729 435.891L246.329 429.993C240.86 436.262 237.556 444.045 235.789 454.053L239.414 454.17L247.846 475.7Z" fill="#FFB7D5"/>
<path d="M303.026 404.1C298.675 405.322 294.343 406.603 290.115 407.923L307.152 419.628L303.026 404.1Z" fill="#FFB7D5"/>
<path d="M274.915 509.611L265.892 490.702L261.38 511.569L244.626 510.268L260.089 523.963L250.423 546.787L267.203 530.96L281.111 547.184L276.85 522.656L291.027 503.746L274.915 509.611Z" fill="#FFB7D5"/>
<path d="M303.026 496.379L286.432 496.144" stroke="#A15842" stroke-width="2.67791" stroke-miterlimit="10" stroke-linecap="round"/>
<path d="M315.365 401.252C298.174 405.686 279.799 411.129 265.879 417.007C236.187 429.59 231.374 450.242 234.259 498.674" stroke="#A15842" stroke-width="2.67791" stroke-miterlimit="10" stroke-linecap="round"/>
<path d="M533.541 397.448H517.756V668.887H533.541V397.448Z" fill="#FFBE21"/>
<path d="M533.541 401.18H517.756" stroke="#A15842" stroke-width="2.67791" stroke-miterlimit="10"/>
<path d="M304.562 193.337C295.564 192.036 274.954 201.823 274.272 221.168C273.591 240.513 290.661 246.73 293.392 248.115L333 241.892L335.732 197.674L304.562 193.337Z" fill="#A15842"/>
<path d="M374.536 145.295C391.538 145.295 405.32 131.35 405.32 114.148C405.32 96.9452 391.538 83 374.536 83C357.534 83 343.752 96.9452 343.752 114.148C343.752 131.35 357.534 145.295 374.536 145.295Z" fill="#A15842"/>
<path d="M354.568 135.567C356.445 136.445 340.641 98.5023 332.576 104.42C324.986 110.005 345.037 131.119 354.568 135.567Z" fill="#30242A"/>
<path d="M355.442 137.889C357.165 139.97 397.486 125.696 391.908 117.464C386.574 109.544 353.72 135.801 355.442 137.889Z" fill="#30242A"/>
<path d="M408.971 242.243C408.971 242.243 436.04 219.419 418.611 193.987C407.518 177.776 377.357 184.233 377.357 184.233C378.09 175.331 380.481 149.684 361.419 135.593C342.357 121.502 318.174 128.922 309.362 140.041C300.551 151.161 302.769 171.936 299.838 186.769C296.907 201.601 298.861 211.687 307.897 216.434C316.117 220.752 325.789 218.144 325.789 218.144L324.761 233.796C324.761 233.796 306.123 234.505 294.703 238.686C267.184 248.765 218.835 317.888 218.835 317.888C188.546 316.587 160.185 315.287 160.185 315.287L175.011 359.635C175.011 359.635 212.389 372.022 239.459 364.837C266.92 357.56 292.955 318.538 292.955 318.538L301.952 344.62L286.483 388.311H421.188L398.63 347.878C402.531 312.023 408.971 242.243 408.971 242.243Z" fill="#EAA58B"/>
<path d="M365.687 232.17L330.339 297.021L315.879 234.446C309.523 235.096 301.053 236.358 294.767 238.66C267.184 248.765 218.835 317.888 218.835 317.888C188.546 316.587 160.185 315.287 160.185 315.287L175.011 359.635C175.011 359.635 212.389 372.022 239.459 364.837C266.92 357.56 292.955 318.538 292.955 318.538L301.952 344.62L286.483 388.311H421.188L398.63 347.885C402.486 312.016 408.913 242.236 408.913 242.236C402.945 238.56 396.411 235.923 389.581 234.433C381.888 232.678 373.431 233.724 365.687 232.17Z" fill="#4756DF"/>
<path d="M182.633 383.753H294.253L268.874 302.652C268.128 300.262 266.648 298.175 264.65 296.693C262.652 295.212 260.239 294.413 257.762 294.413H163.43C161.597 294.412 159.79 294.849 158.155 295.687C156.52 296.526 155.104 297.743 154.021 299.239C152.938 300.736 152.22 302.47 151.924 304.3C151.628 306.13 151.763 308.005 152.318 309.773L173.295 376.841C173.925 378.847 175.169 380.598 176.848 381.841C178.527 383.084 180.553 383.754 182.633 383.753V383.753Z" fill="#30242A"/>
<path d="M199.266 331.101C202.229 327.005 215.667 337.825 216.657 338.716C217.171 337.825 224.17 327.011 229.298 331.101C233.752 334.652 223.964 350.512 221.361 354.556C221.252 354.679 221.119 354.777 220.97 354.844C220.821 354.911 220.66 354.946 220.497 354.946C220.334 354.946 220.173 354.911 220.024 354.844C219.875 354.777 219.741 354.679 219.632 354.556C214.883 350.512 196.695 334.652 199.266 331.101Z" fill="#A15842"/>
<path d="M215.549 333.844C216.671 333.49 216.714 330.388 215.644 326.915C214.575 323.441 212.799 320.912 211.677 321.266C210.556 321.619 210.513 324.721 211.582 328.195C212.651 331.668 214.428 334.197 215.549 333.844Z" fill="#A15842"/>
<path d="M359.067 374.623C359.39 375.672 359.465 376.784 359.286 377.868C359.107 378.951 358.679 379.978 358.036 380.863C357.393 381.749 356.554 382.47 355.585 382.967C354.617 383.465 353.546 383.725 352.46 383.727H182.633C180.553 383.728 178.527 383.058 176.848 381.815C175.169 380.572 173.925 378.821 173.295 376.815L172.601 374.597L359.067 374.623Z" fill="#30242A"/>
<path d="M560.738 383.753H63.173V400.055H560.738V383.753Z" fill="#FFBE21"/>
<path d="M461.439 473.086L471.773 432.191H411.49C398.06 432.192 385.012 436.716 374.404 445.049C363.796 453.383 356.232 465.052 352.904 478.217L345.899 505.918H419.645C429.226 505.917 438.533 502.69 446.1 496.746C453.668 490.801 459.064 482.477 461.439 473.086V473.086Z" fill="#FFB7D5"/>
<path d="M347.325 495.195L344.941 505.391" stroke="#A15842" stroke-width="2.67791" stroke-linecap="round" stroke-linejoin="round"/>
<path d="M154.812 317.634C147.312 321.425 143.565 327.746 143.565 332.174C143.565 338.638 150.069 339.854 150.069 339.854C150.069 339.854 145.217 347.572 153.655 351.194C153.655 351.194 153.655 359.141 161.515 359.141C161.515 359.141 160.474 365.338 168.675 365.923C176.875 366.508 185.313 362.177 186.027 359.375C186.843 356.065 184.639 353.295 178.687 352.417C178.687 352.417 186.721 348.619 185.448 343.827C184.176 339.034 178.745 339.145 178.745 339.145C178.745 339.145 183.945 335.991 181.168 331.342C178.392 326.692 173.083 328.305 173.083 328.305C173.083 328.305 174.472 325.054 172.042 322.576C169.15 319.65 156.714 323.344 156.714 323.344L154.812 317.634Z" fill="#EAA58A"/>
<path d="M161.573 359.446C168.34 357.805 174.906 355.406 181.149 352.293" stroke="#A15842" stroke-width="2.67791" stroke-miterlimit="10" stroke-linecap="round"/>
<path d="M153.636 351.155C163.019 348.552 171.977 344.581 180.23 339.366" stroke="#A15842" stroke-width="2.67791" stroke-miterlimit="10" stroke-linecap="round"/>
<path d="M149.426 340.777C158.121 338.174 166.336 334.148 173.745 328.858" stroke="#A15842" stroke-width="2.67791" stroke-miterlimit="10" stroke-linecap="round"/>
<path d="M418.643 193.987C407.55 177.776 377.39 184.233 377.39 184.233C378.122 175.331 380.513 149.684 361.451 135.593C342.389 121.502 318.206 128.922 309.394 140.041C305.808 144.593 304.054 150.718 303.032 157.403C308.88 158.398 317.46 156.363 317.46 156.363C329.189 169.713 339.697 171.832 339.697 171.832C347.904 163.529 362.299 163.802 364.639 176.384C367.068 189.448 346.445 195.32 346.445 195.32C346.445 195.32 344.517 218.794 354.799 227.274C357.955 229.805 361.687 231.497 365.654 232.196C373.366 233.75 381.856 232.704 389.607 234.446C396.436 235.936 402.971 238.573 408.938 242.249C411.293 240.15 413.445 237.829 415.365 235.318C422.126 226.643 430.211 210.894 418.643 193.987Z" fill="#A15842"/>
<path d="M329.697 151.603C325.841 154.854 321.342 156.805 316.162 158.105" stroke="#EAA58B" stroke-width="2.67791" stroke-miterlimit="10" stroke-linecap="round"/>
<path d="M325.577 219.607C328.57 218.597 331.457 217.29 334.196 215.706" stroke="#A15842" stroke-width="2.67791" stroke-miterlimit="10" stroke-linecap="round"/>
<path d="M347.235 182.204L353.096 178.498" stroke="#A15842" stroke-width="2.67791" stroke-miterlimit="10" stroke-linecap="round"/>
<path d="M313.604 199.612C314.819 200.372 319.388 200.964 321.2 197.433" stroke="#A15842" stroke-width="2.67791" stroke-miterlimit="10" stroke-linecap="round"/>
<path d="M325.545 182.926C326.759 182.926 327.743 181.93 327.743 180.702C327.743 179.474 326.759 178.478 325.545 178.478C324.331 178.478 323.347 179.474 323.347 180.702C323.347 181.93 324.331 182.926 325.545 182.926Z" fill="#30242A"/>
<path d="M307.325 179.98C308.539 179.98 309.523 178.985 309.523 177.756C309.523 176.528 308.539 175.532 307.325 175.532C306.111 175.532 305.127 176.528 305.127 177.756C305.127 178.985 306.111 179.98 307.325 179.98Z" fill="#30242A"/>
<path d="M313.514 186.346C313.077 187.744 312.698 189.266 312.949 189.773C313.293 190.416 313.816 190.943 314.453 191.288" stroke="#A15842" stroke-width="2.67791" stroke-miterlimit="10" stroke-linecap="round"/>
<path d="M349.992 203.994C354.245 203.994 357.692 200.507 357.692 196.204C357.692 191.902 354.245 188.414 349.992 188.414C345.74 188.414 342.293 191.902 342.293 196.204C342.293 200.507 345.74 203.994 349.992 203.994Z" fill="#F5EBDD"/>
<path d="M312.954 179.007C314.286 172.08 310.369 165.481 304.206 164.267C298.043 163.054 291.966 167.686 290.634 174.613C289.302 181.54 293.219 188.139 299.382 189.352C305.546 190.566 311.622 185.934 312.954 179.007Z" stroke="#30242A" stroke-width="2.67791" stroke-miterlimit="10" stroke-linecap="round"/>
<path d="M340.878 182.471C342.21 175.544 338.294 168.945 332.13 167.732C325.967 166.518 319.891 171.15 318.559 178.077C317.227 185.004 321.143 191.603 327.307 192.817C333.47 194.03 339.546 189.398 340.878 182.471Z" stroke="#30242A" stroke-width="2.67791" stroke-miterlimit="10" stroke-linecap="round"/>
<path d="M313.482 177.958L317.923 178.439" stroke="#30242A" stroke-width="2.67791" stroke-miterlimit="10" stroke-linecap="round"/>
<path d="M378.861 185.091L377.582 193.415" stroke="#30242A" stroke-width="2.67791" stroke-miterlimit="10" stroke-linecap="round"/>
<path d="M285.873 301.586L292.094 319.904" stroke="#30242A" stroke-width="2.67791" stroke-linecap="round" stroke-linejoin="round"/>
<path d="M318.739 343.32H302.383" stroke="#30242A" stroke-width="2.67791" stroke-linecap="round" stroke-linejoin="round"/>
<path d="M331.631 296.371L336.785 321.802V345.277" stroke="#30242A" stroke-width="2.67791" stroke-linecap="round" stroke-linejoin="round"/>
<path d="M297.351 238.094L307.139 260.502L295.539 259.202L336.785 321.803" stroke="#30242A" stroke-width="2.67791" stroke-linecap="round" stroke-linejoin="round"/>
<path d="M392.717 235.428L376.104 259.202L391.574 257.895L334.851 308.758" stroke="#30242A" stroke-width="2.67791" stroke-linecap="round" stroke-linejoin="round"/>
<path d="M401.355 315.144L388.996 297.678" stroke="#30242A" stroke-width="2.67791" stroke-linecap="round" stroke-linejoin="round"/>
<path d="M415.655 379.52C408.926 377.25 396.85 372.868 389.568 368.465" stroke="#30242A" stroke-width="2.67791" stroke-linecap="round" stroke-linejoin="round"/>
<path d="M230.05 217.715C237.032 217.715 242.691 211.988 242.691 204.924C242.691 197.86 237.032 192.134 230.05 192.134C223.068 192.134 217.409 197.86 217.409 204.924C217.409 211.988 223.068 217.715 230.05 217.715Z" fill="#FFB7D5"/>
<path d="M192.268 154.022L184.908 145.042C183.775 143.66 181.75 143.469 180.384 144.615L180.225 144.748C178.859 145.894 178.67 147.944 179.803 149.326L187.163 158.306C188.296 159.688 190.322 159.879 191.688 158.733L191.846 158.6C193.212 157.454 193.401 155.404 192.268 154.022Z" fill="#4756DF"/>
<path d="M205.506 164.933L198.103 155.894L65.0239 267.545C63.8633 268.519 63.1328 269.92 62.993 271.44C62.8532 272.959 63.3156 274.472 64.2784 275.647L64.4262 275.829C64.9025 276.41 65.4874 276.891 66.1473 277.243C66.8073 277.596 67.5294 277.813 68.2724 277.883C69.0154 277.953 69.7648 277.874 70.4777 277.651C71.1907 277.428 71.8532 277.065 72.4275 276.583L114.034 241.664V364.193H125.647V231.91L205.506 164.933Z" fill="#3EC1F3"/>
<path d="M184.06 167.534L187.768 172.086C189.06 173.665 190.041 175.479 190.66 177.431" stroke="#4756DF" stroke-width="2.67791" stroke-miterlimit="10"/>
<path d="M119.838 244.376C128.204 244.376 134.985 237.514 134.985 229.049C134.985 220.584 128.204 213.722 119.838 213.722C111.472 213.722 104.69 220.584 104.69 229.049C104.69 237.514 111.472 244.376 119.838 244.376Z" fill="#4756DF"/>
<path d="M119.838 234.94C123.053 234.94 125.66 232.303 125.66 229.049C125.66 225.795 123.053 223.158 119.838 223.158C116.622 223.158 114.015 225.795 114.015 229.049C114.015 232.303 116.622 234.94 119.838 234.94Z" fill="#3EC1F3"/>
<path d="M240.429 197.661L221.053 213.865" stroke="#A15842" stroke-width="2.67791" stroke-miterlimit="10"/>
<path d="M215.326 163.294C211.252 162.81 207.519 160.756 204.902 157.559L199.761 151.271C197.944 149.058 195.332 147.664 192.501 147.397C189.669 147.13 186.848 148.011 184.658 149.847V149.847C183.574 150.756 182.678 151.873 182.021 153.133C181.363 154.392 180.958 155.771 180.827 157.189C180.696 158.608 180.843 160.038 181.259 161.399C181.675 162.76 182.351 164.025 183.25 165.122L188.392 171.429C190.997 174.617 192.292 178.695 192.01 182.822L190.725 201.836C190.088 211.139 192.422 220.403 197.383 228.262L199.028 230.863L260.68 179.122L258.469 177.022C251.759 170.634 243.197 166.597 234.047 165.505L215.326 163.294Z" fill="#3EC1F3"/>
<path d="M125.647 364.193H114.034L96.8684 368.927C93.6544 369.814 90.8178 371.746 88.7959 374.426C86.7741 377.105 85.679 380.382 85.6794 383.753H153.996C153.996 380.381 152.9 377.103 150.877 374.424C148.854 371.745 146.016 369.813 142.8 368.927L125.647 364.193Z" fill="#3EC1F3"/>
<path d="M248.983 169.921L192.563 217.104" stroke="#4756DF" stroke-width="2.67791" stroke-miterlimit="10" stroke-linecap="round"/>
<path d="M113.751 362.847H125.647" stroke="#4756DF" stroke-width="2.67791" stroke-miterlimit="10" stroke-linecap="round"/>
<path d="M87.9352 375.625H151.354" stroke="#4756DF" stroke-width="2.67791" stroke-miterlimit="10" stroke-linecap="round"/>
<path d="M453.45 551.508C454.736 540.453 454.093 515.639 439.915 496.73C425.738 477.82 445.057 485.675 450.841 490.877C460.095 499.201 468.245 507.179 475.333 533.918L453.45 551.508Z" fill="#30242A"/>
<path d="M440.07 595.797L456.027 668.887H485.68V664.335C485.68 661.4 484.53 658.585 482.482 656.507C480.434 654.428 477.655 653.257 474.755 653.248V653.248C474.755 653.248 489.575 642.005 498.598 630.918C498.598 630.918 514.067 649.99 535.983 646.726L537.57 654.529C538.396 658.579 540.575 662.218 543.741 664.833C546.907 667.448 550.867 668.879 554.954 668.887H626.825C658.701 668.887 674.383 663.964 675.282 645.601C675.31 644.9 675.198 644.202 674.952 643.546C674.706 642.891 674.331 642.292 673.851 641.787C673.371 641.282 672.795 640.88 672.157 640.606C671.52 640.331 670.834 640.19 670.141 640.191H650.077C649.249 640.192 648.432 640.004 647.686 639.643C646.94 639.282 646.283 638.756 645.764 638.103L637.223 627.381C634.691 624.207 631.313 621.836 627.488 620.549C623.664 619.261 619.555 619.111 615.649 620.117L598.47 624.558C598.47 624.558 568.033 580.301 540.462 549.564C514.112 520.217 464.549 517.05 445.025 555.273C438.748 567.781 436.995 582.118 440.07 595.797V595.797Z" fill="#A15842"/>
<path d="M499.794 631.438C504.292 626.021 519.646 606.078 518.547 586.57C517.371 565.697 505.012 554.616 505.012 554.616" stroke="#30242A" stroke-width="2.67791" stroke-miterlimit="10" stroke-linecap="round"/>
<path d="M532.082 619.168C532.082 619.168 532.904 634.598 534.556 646.121" stroke="#30242A" stroke-width="2.67791" stroke-miterlimit="10" stroke-linecap="round"/>
<path d="M615.841 620.059V619.981L598.444 624.532L615.623 620.091L615.841 620.059Z" fill="#30242A"/>
<path d="M573.026 653.372C567.988 655.973 560.867 661.064 561.458 668.776H589.44L595.321 659.393C596.282 657.858 597.61 656.594 599.183 655.718C600.756 654.841 602.522 654.381 604.318 654.379H606.188L615.777 620.254L615.636 620.104L598.457 624.545L582.011 645.861C579.59 648.994 576.524 651.557 573.026 653.372V653.372Z" fill="#30242A"/>
<path d="M532.159 565.495C532.159 565.495 524.376 592.754 549.511 603.048C562.255 608.25 572.84 604.303 580.186 599.146C569.087 584.19 554.401 565.15 540.455 549.596C536.959 545.703 533.029 542.232 528.746 539.25C524.941 544.492 520.777 557.458 532.159 565.495Z" fill="#EAA58B"/>
<path d="M467.955 585.263C473.83 585.263 478.592 580.445 478.592 574.501C478.592 568.558 473.83 563.739 467.955 563.739C462.081 563.739 457.319 568.558 457.319 574.501C457.319 580.445 462.081 585.263 467.955 585.263Z" fill="#EAA58B"/>
<path d="M389.639 325.984C381.708 325.265 373.734 325.176 365.789 325.717C354.427 326.66 339.15 329.671 333.013 332.675C326.875 335.679 303.373 346.285 309.703 349.842C315.487 353.093 327.621 348.203 327.621 348.203C327.621 348.203 315.513 359.466 313.431 364.18C311.348 368.895 318.231 371.541 318.231 371.541C320.044 379.591 328.154 376.132 328.154 376.132C333.264 387.128 360.867 363.302 360.867 363.302C367.434 363.993 374.065 363.71 380.552 362.463C380.552 362.463 384.048 364.447 389.658 367.204L389.639 325.984Z" fill="#EAA58A"/>
<path d="M458.598 381.146C510.16 356.364 435.417 263.773 408.971 242.243L394.151 302.893L412.84 328.975C404.652 327.544 396.824 326.562 389.639 325.984V367.204C406.002 375.254 440.385 389.924 458.598 381.146Z" fill="#4756DF"/>
<path d="M325.153 348.886C329.729 345.056 337.325 338.865 342.994 335.133" stroke="#A15842" stroke-width="2.67791" stroke-miterlimit="10" stroke-linecap="round"/>
<path d="M349.241 344.282C336.072 352.911 324.074 364.44 318.135 370.475" stroke="#A15842" stroke-width="2.67791" stroke-miterlimit="10" stroke-linecap="round"/>
<path d="M355.082 354.043C346.085 360.292 335.642 369.766 328.823 376.269" stroke="#A15842" stroke-width="2.67791" stroke-miterlimit="10" stroke-linecap="round"/>
<path d="M509.774 350.538C510.749 350.539 511.683 350.932 512.372 351.629C513.061 352.326 513.449 353.271 513.451 354.257V354.81C513.449 355.796 513.061 356.741 512.372 357.438C511.683 358.135 510.749 358.528 509.774 358.529H490.835V350.538H509.774ZM509.774 345.336H486.388C486.296 345.336 486.205 345.354 486.12 345.39C486.036 345.425 485.959 345.478 485.894 345.544C485.83 345.609 485.779 345.688 485.744 345.774C485.71 345.86 485.693 345.952 485.693 346.044V363.049C485.693 363.235 485.766 363.414 485.897 363.545C486.027 363.677 486.203 363.751 486.388 363.751H509.774C510.934 363.751 512.082 363.52 513.153 363.07C514.224 362.62 515.197 361.962 516.016 361.131C516.835 360.3 517.484 359.315 517.926 358.23C518.368 357.145 518.594 355.983 518.592 354.81V354.238C518.592 351.871 517.663 349.602 516.009 347.929C514.356 346.256 512.113 345.316 509.774 345.316V345.336Z" fill="#3EC1F3"/>
<path d="M481.496 342.533C462.345 342.533 453.495 327.089 453.495 327.089L466.349 383.753H496.606L509.459 327.089C506.474 331.85 502.342 335.766 497.45 338.467C492.559 341.169 487.069 342.568 481.496 342.533Z" fill="#3EC1F3"/>
<path d="M481.496 342.533C487.076 342.574 492.573 341.179 497.472 338.477C502.371 335.775 506.509 331.856 509.498 327.089H453.495C453.495 327.089 462.345 342.533 481.496 342.533Z" fill="#30242A"/>
<rect x="-67" y="428.29" width="767.354" height="299.771" fill="white"/>
</g>
<defs>
<clipPath id="clip0">
<rect width="633" height="624" fill="white"/>
</clipPath>
</defs>
</svg>
