<svg width="297" height="274" viewBox="0 0 297 274" fill="none" xmlns="http://www.w3.org/2000/svg">
<g clip-path="url(#clip0)">
<path d="M259.244 195.913C259.719 194.957 259.964 193.904 259.961 192.837C259.957 191.769 259.706 190.718 259.225 189.765L250.356 176.84C250.189 176.599 250.096 176.321 250.096 176.007C250.096 175.692 250.189 175.414 250.356 175.173L259.244 162.211C259.719 161.255 259.964 160.202 259.961 159.135C259.957 158.068 259.706 157.016 259.225 156.063C258.857 155.06 258.275 154.148 257.521 153.39C256.767 152.633 255.857 152.048 254.855 151.675L239.616 146.101C239.334 146.005 239.083 145.836 238.888 145.612C238.693 145.388 238.561 145.116 238.505 144.823V129.25C238.446 128.149 238.133 127.075 237.59 126.115C237.047 125.154 236.289 124.333 235.375 123.714C234.115 122.853 232.624 122.394 231.098 122.399H227.95L212.21 126.473C211.788 126.643 211.317 126.643 210.895 126.473L200.729 114.437C199.987 113.63 199.085 112.986 198.081 112.545C197.077 112.104 195.993 111.877 194.896 111.877C193.8 111.877 192.715 112.104 191.711 112.545C190.707 112.986 189.806 113.63 189.063 114.437L178.879 126.473C178.457 126.643 177.986 126.643 177.564 126.473H177.583L160.917 122.214H158.917C157.374 122.209 155.865 122.667 154.584 123.529C153.679 124.149 152.927 124.97 152.388 125.926C151.849 126.883 151.536 127.95 151.473 129.047V144.62C151.42 144.912 151.292 145.186 151.1 145.413C150.908 145.641 150.66 145.814 150.381 145.916L135.178 151.471C133.439 151.755 131.857 152.646 130.712 153.984C129.566 155.323 128.931 157.024 128.919 158.785C128.919 159.897 129.179 160.952 129.642 161.878L138.511 174.803C138.678 175.044 138.771 175.321 138.771 175.636C138.771 175.951 138.678 176.229 138.511 176.469L129.623 189.432C129.148 190.387 128.903 191.441 128.906 192.508C128.909 193.575 129.161 194.626 129.642 195.579C130.01 196.583 130.592 197.495 131.346 198.252C132.1 199.01 133.01 199.595 134.012 199.968L149.251 205.542C149.533 205.638 149.784 205.806 149.979 206.031C150.174 206.255 150.306 206.527 150.362 206.819V222.392C150.421 223.494 150.734 224.567 151.277 225.528C151.82 226.488 152.578 227.31 153.492 227.929C154.772 228.79 156.282 229.248 157.825 229.244H160.936L166.676 227.947V296.276L195.008 259.242L222.228 296.276V227.947L227.968 229.429H230.153C231.697 229.433 233.206 228.976 234.486 228.114C235.392 227.493 236.143 226.673 236.683 225.716C237.222 224.76 237.535 223.692 237.597 222.596V207.023C237.65 206.73 237.779 206.457 237.971 206.229C238.162 206.002 238.41 205.829 238.69 205.727L253.892 200.172C255.053 199.943 256.142 199.442 257.072 198.712C258.002 197.981 258.747 197.041 259.244 195.968V195.913Z" fill="#F3C54E" fill-opacity="0.94"/>
<path d="M0 18.5173V240.724H148.138L146.101 239.799C143.464 237.992 141.275 235.607 139.702 232.824C138.13 230.041 137.215 226.935 137.028 223.744V222.207H18.5173V37.0345H277.759V222.207H251.279V223.689C251.099 226.875 250.196 229.979 248.636 232.765C247.077 235.55 244.903 237.943 242.28 239.762L240.724 240.724H296.276V18.5173H0Z" fill="#F3C54E" fill-opacity="0.94"/>
<path d="M137.583 127.954C137.644 124.639 138.491 121.386 140.056 118.463C141.621 115.539 143.858 113.03 146.583 111.141C147.097 111.006 147.636 110.993 148.157 111.104H55.5518V129.621H137.583V127.954Z" fill="#F3C54E" fill-opacity="0.94"/>
<path d="M118.881 148.138H55.5518V166.655H117.77C116.495 164.295 115.756 161.682 115.605 159.003C115.455 156.324 115.897 153.645 116.899 151.156C117.195 149.953 117.894 148.887 118.881 148.138Z" fill="#F3C54E" fill-opacity="0.94"/>
<path d="M55.5518 74.069H240.724V92.5863H55.5518V74.069Z" fill="#F3C54E" fill-opacity="0.94"/>
</g>
<defs>
<clipPath id="clip0">
<rect width="296.276" height="296.276" fill="white"/>
</clipPath>
</defs>
</svg>
